<?xml version="1.0" standalone="no"?>
<!DOCTYPE svg PUBLIC "-//W3C//DTD SVG 20010904//EN"
 "http://www.w3.org/TR/2001/REC-SVG-20010904/DTD/svg10.dtd">

<svg version="1.0"
     xmlns="http://www.w3.org/2000/svg"
     width="64.000000pt"
     height="64.000000pt"
     viewBox="0 0 64.000000 64.000000"
     preserveAspectRatio="xMidYMid meet">

<g transform="translate(0.000000,64.000000) scale(0.100000,-0.100000)"
fill="#FFFFFF" stroke="none">

<path d="M503 575 c-7 -21 27 -59 40 -46 7 7 7 19 -1 36 -13 28 -30 33 -39 10z"/>
<path d="M455 530 c-3 -5 8 -16 24 -25 35 -18 56 -1 26 22 -22 15 -41 17 -50 3z"/>
<path d="M540 505 c-29 -31 -23 -38 18 -23 20 8 32 19 32 30 0 25 -23 22 -50 -7z"/>
<path d="M450 475 c0 -8 6 -15 13 -15 6 0 23 -3 37 -7 25 -6 25 -6 6 15 -22 25 -56 29 -56 7z"/>
<path d="M536 451 c-10 -11 -13 -22 -7 -25 15 -10 61 12 61 29 0 21 -33 19 -54 -4z"/>
<path d="M445 440 c-11 -17 5 -50 25 -50 10 0 25 -3 34 -6 25 -10 20 32 -6 50
-26 18 -44 20 -53 6z"/>
<path d="M535 390 c-26 -29 -8 -43 33 -28 19 8 32 19 32 30 0 25 -42 23 -65
-2z"/>
<path d="M443 364 c-7 -20 4 -30 45 -39 37 -8 44 11 14 38 -23 21 -51 22 -59
1z"/>
<path d="M539 331 c-18 -15 -21 -22 -12 -31 17 -18 68 1 68 26 0 26 -27 29
-56 5z"/>
<path d="M260 322 c0 -5 9 -17 19 -26 24 -22 37 -74 22 -89 -7 -7 -13 -3 -20
14 -5 14 -21 39 -36 57 -20 24 -35 32 -61 32 -40 0 -41 -3 -14 -37 11 -14 20
-37 20 -51 0 -24 -1 -24 -27 11 -33 43 -55 46 -88 13 -52 -52 -43 -110 22
-142 53 -26 298 -27 356 -2 43 20 46 32 12 54 -27 18 -37 41 -40 98 -2 25 -9
45 -21 53 -26 19 -39 0 -20 -30 15 -22 13 -57 -3 -57 -4 0 -13 16 -20 35 -6
19 -24 44 -38 55 -26 20 -63 27 -63 12z"/>
<path d="M440 291 c0 -24 6 -28 44 -32 34 -5 44 12 21 35 -24 23 -65 21 -65
-3z"/>
<path d="M535 260 c-26 -29 -9 -43 33 -28 20 8 31 18 30 28 -5 23 -42 23 -63
0z"/>
<path d="M447 243 c-9 -16 13 -54 39 -65 25 -12 26 -15 21 -70 -5 -52 -3 -58
14 -58 17 0 18 5 13 37 -5 34 -2 40 25 61 20 15 31 31 31 47 0 27 -11 31 -38
14 -15 -10 -23 -7 -45 15 -26 25 -51 33 -60 19z"/>

</g>
</svg>